G04*
G04 #@! TF.GenerationSoftware,Altium Limited,Altium Designer,21.3.2 (30)*
G04*
G04 Layer_Color=8421504*
%FSTAX24Y24*%
%MOIN*%
G70*
G04*
G04 #@! TF.SameCoordinates,FC301295-0451-47DE-88D9-1873DC5D2598*
G04*
G04*
G04 #@! TF.FilePolarity,Positive*
G04*
G01*
G75*
%ADD16R,0.0551X0.0472*%
%ADD17R,0.0476X0.0287*%
%ADD18R,0.0472X0.0551*%
G04:AMPARAMS|DCode=19|XSize=55.5mil|YSize=30.3mil|CornerRadius=3.8mil|HoleSize=0mil|Usage=FLASHONLY|Rotation=180.000|XOffset=0mil|YOffset=0mil|HoleType=Round|Shape=RoundedRectangle|*
%AMROUNDEDRECTD19*
21,1,0.0555,0.0227,0,0,180.0*
21,1,0.0479,0.0303,0,0,180.0*
1,1,0.0076,-0.0240,0.0114*
1,1,0.0076,0.0240,0.0114*
1,1,0.0076,0.0240,-0.0114*
1,1,0.0076,-0.0240,-0.0114*
%
%ADD19ROUNDEDRECTD19*%
%ADD20R,0.0591X0.1378*%
%ADD21R,0.0197X0.0886*%
%ADD22R,0.0787X0.0984*%
%ADD23R,0.1575X0.1102*%
G04:AMPARAMS|DCode=24|XSize=51.6mil|YSize=36.6mil|CornerRadius=2.7mil|HoleSize=0mil|Usage=FLASHONLY|Rotation=180.000|XOffset=0mil|YOffset=0mil|HoleType=Round|Shape=RoundedRectangle|*
%AMROUNDEDRECTD24*
21,1,0.0516,0.0311,0,0,180.0*
21,1,0.0461,0.0366,0,0,180.0*
1,1,0.0055,-0.0230,0.0156*
1,1,0.0055,0.0230,0.0156*
1,1,0.0055,0.0230,-0.0156*
1,1,0.0055,-0.0230,-0.0156*
%
%ADD24ROUNDEDRECTD24*%
G04:AMPARAMS|DCode=25|XSize=51.6mil|YSize=127.6mil|CornerRadius=3.9mil|HoleSize=0mil|Usage=FLASHONLY|Rotation=180.000|XOffset=0mil|YOffset=0mil|HoleType=Round|Shape=RoundedRectangle|*
%AMROUNDEDRECTD25*
21,1,0.0516,0.1198,0,0,180.0*
21,1,0.0438,0.1276,0,0,180.0*
1,1,0.0077,-0.0219,0.0599*
1,1,0.0077,0.0219,0.0599*
1,1,0.0077,0.0219,-0.0599*
1,1,0.0077,-0.0219,-0.0599*
%
%ADD25ROUNDEDRECTD25*%
%ADD26R,0.0630X0.0315*%
%ADD27R,0.0591X0.0394*%
%ADD28R,0.0394X0.0591*%
%ADD29R,0.1772X0.1772*%
%ADD30R,0.0100X0.0354*%
%ADD31R,0.0354X0.0100*%
%ADD32R,0.0400X0.0450*%
G36*
X046451Y026202D02*
Y025708D01*
X045959D01*
X045959Y026202D01*
X046451D01*
D02*
G37*
G36*
X046452Y026891D02*
Y026398D01*
X045959D01*
Y026891D01*
X046452D01*
D02*
G37*
G36*
X047142Y026202D02*
Y025708D01*
X046648D01*
Y026202D01*
X047142D01*
D02*
G37*
G36*
X047142Y026891D02*
Y026399D01*
X046648D01*
Y026891D01*
X047142Y026891D01*
D02*
G37*
D16*
X040001Y023828D02*
D03*
Y024576D02*
D03*
X048549Y025674D02*
D03*
X048549Y026422D02*
D03*
X049547Y026445D02*
D03*
Y025697D02*
D03*
X041199Y024572D02*
D03*
Y023824D02*
D03*
X050824Y028928D02*
D03*
X050824Y029676D02*
D03*
X047824D02*
D03*
Y028928D02*
D03*
X049826Y028924D02*
D03*
X049826Y029672D02*
D03*
X048826Y028924D02*
D03*
Y029672D02*
D03*
X051874Y028978D02*
D03*
Y029726D02*
D03*
X05287Y029745D02*
D03*
X05287Y028958D02*
D03*
D17*
X039889Y0222D02*
D03*
X041211D02*
D03*
D18*
X049322Y024751D02*
D03*
X048574D02*
D03*
X04855Y02755D02*
D03*
X049298Y02755D02*
D03*
X0442Y0265D02*
D03*
X043452D02*
D03*
X0442Y02465D02*
D03*
X043452D02*
D03*
X043413Y0256D02*
D03*
X0442D02*
D03*
X043424Y027424D02*
D03*
X044172Y027424D02*
D03*
D19*
X04825Y0354D02*
D03*
Y0349D02*
D03*
Y0344D02*
D03*
Y0339D02*
D03*
X04825Y0334D02*
D03*
X04825Y0329D02*
D03*
Y0324D02*
D03*
Y0319D02*
D03*
Y039809D02*
D03*
Y040309D02*
D03*
X0544Y039809D02*
D03*
Y040309D02*
D03*
Y0354D02*
D03*
Y0349D02*
D03*
Y0344D02*
D03*
Y0339D02*
D03*
X0544Y0334D02*
D03*
X0544Y0329D02*
D03*
Y0324D02*
D03*
Y0319D02*
D03*
X04825Y040809D02*
D03*
X0544D02*
D03*
D20*
X0471Y04325D02*
D03*
X048163D02*
D03*
X046037D02*
D03*
D21*
X04717Y02244D02*
D03*
X04686Y022435D02*
D03*
X04655Y02243D02*
D03*
X04624Y022425D02*
D03*
X04593Y02242D02*
D03*
D22*
X048322Y0223D02*
D03*
X04832Y02004D02*
D03*
X044777D02*
D03*
X044778Y0223D02*
D03*
D23*
X0399Y02995D02*
D03*
X04238D02*
D03*
D24*
X041617Y025948D02*
D03*
X041617Y02685D02*
D03*
X041617Y027752D02*
D03*
D25*
X038983Y02685D02*
D03*
D26*
X042228Y0203D02*
D03*
X039472D02*
D03*
X053178Y02025D02*
D03*
X050422D02*
D03*
D27*
X038667Y0371D02*
D03*
Y0366D02*
D03*
Y0361D02*
D03*
Y0356D02*
D03*
Y0351D02*
D03*
Y0346D02*
D03*
Y0341D02*
D03*
Y0336D02*
D03*
X04595Y0321D02*
D03*
Y0326D02*
D03*
Y0331D02*
D03*
Y0336D02*
D03*
Y0341D02*
D03*
Y0346D02*
D03*
Y0351D02*
D03*
X038667Y0331D02*
D03*
Y0326D02*
D03*
Y0321D02*
D03*
Y0376D02*
D03*
Y0381D02*
D03*
Y0386D02*
D03*
X04595Y0356D02*
D03*
Y0361D02*
D03*
Y0366D02*
D03*
Y0371D02*
D03*
Y0376D02*
D03*
Y0381D02*
D03*
Y0386D02*
D03*
D28*
X044564Y031415D02*
D03*
X041064D02*
D03*
X040064D02*
D03*
X040564D02*
D03*
X041564D02*
D03*
X042064D02*
D03*
X042564D02*
D03*
X044064D02*
D03*
X043564D02*
D03*
X043064D02*
D03*
D29*
X042576Y035714D02*
D03*
D30*
X045959Y02528D02*
D03*
X046156D02*
D03*
X046353D02*
D03*
X04655D02*
D03*
X046747D02*
D03*
X046944D02*
D03*
X047141D02*
D03*
Y02732D02*
D03*
X046944D02*
D03*
X046747D02*
D03*
X04655D02*
D03*
X046353D02*
D03*
X046156D02*
D03*
X045959D02*
D03*
D31*
X04757Y025709D02*
D03*
Y025906D02*
D03*
Y026103D02*
D03*
Y0263D02*
D03*
Y026497D02*
D03*
Y026694D02*
D03*
Y026891D02*
D03*
X04553D02*
D03*
Y026694D02*
D03*
Y026497D02*
D03*
Y0263D02*
D03*
Y026103D02*
D03*
Y025906D02*
D03*
Y025709D02*
D03*
D32*
X04615Y0298D02*
D03*
X0465Y029D02*
D03*
X0458D02*
D03*
X0444Y02985D02*
D03*
X04475Y02905D02*
D03*
X04405D02*
D03*
M02*
