G04*
G04 #@! TF.GenerationSoftware,Altium Limited,Altium Designer,21.3.2 (30)*
G04*
G04 Layer_Color=8388736*
%FSTAX24Y24*%
%MOIN*%
G70*
G04*
G04 #@! TF.SameCoordinates,FC301295-0451-47DE-88D9-1873DC5D2598*
G04*
G04*
G04 #@! TF.FilePolarity,Negative*
G04*
G01*
G75*
%ADD33R,0.0631X0.0552*%
%ADD34R,0.0556X0.0367*%
%ADD35R,0.0552X0.0631*%
G04:AMPARAMS|DCode=36|XSize=63.5mil|YSize=38.3mil|CornerRadius=7.8mil|HoleSize=0mil|Usage=FLASHONLY|Rotation=180.000|XOffset=0mil|YOffset=0mil|HoleType=Round|Shape=RoundedRectangle|*
%AMROUNDEDRECTD36*
21,1,0.0635,0.0227,0,0,180.0*
21,1,0.0479,0.0383,0,0,180.0*
1,1,0.0156,-0.0240,0.0114*
1,1,0.0156,0.0240,0.0114*
1,1,0.0156,0.0240,-0.0114*
1,1,0.0156,-0.0240,-0.0114*
%
%ADD36ROUNDEDRECTD36*%
%ADD37R,0.0671X0.1458*%
%ADD38R,0.0277X0.0966*%
%ADD39R,0.0867X0.1064*%
%ADD40R,0.1655X0.1182*%
G04:AMPARAMS|DCode=41|XSize=59.6mil|YSize=44.6mil|CornerRadius=6.7mil|HoleSize=0mil|Usage=FLASHONLY|Rotation=180.000|XOffset=0mil|YOffset=0mil|HoleType=Round|Shape=RoundedRectangle|*
%AMROUNDEDRECTD41*
21,1,0.0596,0.0311,0,0,180.0*
21,1,0.0461,0.0446,0,0,180.0*
1,1,0.0135,-0.0230,0.0156*
1,1,0.0135,0.0230,0.0156*
1,1,0.0135,0.0230,-0.0156*
1,1,0.0135,-0.0230,-0.0156*
%
%ADD41ROUNDEDRECTD41*%
G04:AMPARAMS|DCode=42|XSize=59.6mil|YSize=135.6mil|CornerRadius=7.9mil|HoleSize=0mil|Usage=FLASHONLY|Rotation=180.000|XOffset=0mil|YOffset=0mil|HoleType=Round|Shape=RoundedRectangle|*
%AMROUNDEDRECTD42*
21,1,0.0596,0.1198,0,0,180.0*
21,1,0.0438,0.1356,0,0,180.0*
1,1,0.0157,-0.0219,0.0599*
1,1,0.0157,0.0219,0.0599*
1,1,0.0157,0.0219,-0.0599*
1,1,0.0157,-0.0219,-0.0599*
%
%ADD42ROUNDEDRECTD42*%
%ADD43R,0.0710X0.0395*%
%ADD44R,0.0671X0.0474*%
%ADD45R,0.0474X0.0671*%
%ADD46R,0.1852X0.1852*%
%ADD47R,0.0180X0.0434*%
%ADD48R,0.0434X0.0180*%
%ADD49R,0.1300X0.1300*%
%ADD50R,0.0480X0.0530*%
%ADD51R,0.0671X0.0671*%
%ADD52C,0.0671*%
%ADD53C,0.1080*%
%ADD54C,0.0330*%
%ADD55C,0.0552*%
D33*
X040001Y023828D02*
D03*
Y024576D02*
D03*
X048549Y025674D02*
D03*
X048549Y026422D02*
D03*
X049547Y026445D02*
D03*
Y025697D02*
D03*
X041199Y024572D02*
D03*
Y023824D02*
D03*
X050824Y028928D02*
D03*
X050824Y029676D02*
D03*
X047824D02*
D03*
Y028928D02*
D03*
X049826Y028924D02*
D03*
X049826Y029672D02*
D03*
X048826Y028924D02*
D03*
Y029672D02*
D03*
X051874Y028978D02*
D03*
Y029726D02*
D03*
X05287Y029745D02*
D03*
X05287Y028958D02*
D03*
D34*
X039889Y0222D02*
D03*
X041211D02*
D03*
D35*
X049322Y024751D02*
D03*
X048574D02*
D03*
X04855Y02755D02*
D03*
X049298Y02755D02*
D03*
X0442Y0265D02*
D03*
X043452D02*
D03*
X0442Y02465D02*
D03*
X043452D02*
D03*
X043413Y0256D02*
D03*
X0442D02*
D03*
X043424Y027424D02*
D03*
X044172Y027424D02*
D03*
D36*
X04825Y0354D02*
D03*
Y0349D02*
D03*
Y0344D02*
D03*
Y0339D02*
D03*
X04825Y0334D02*
D03*
X04825Y0329D02*
D03*
Y0324D02*
D03*
Y0319D02*
D03*
Y039809D02*
D03*
Y040309D02*
D03*
X0544Y039809D02*
D03*
Y040309D02*
D03*
Y0354D02*
D03*
Y0349D02*
D03*
Y0344D02*
D03*
Y0339D02*
D03*
X0544Y0334D02*
D03*
X0544Y0329D02*
D03*
Y0324D02*
D03*
Y0319D02*
D03*
X04825Y040809D02*
D03*
X0544D02*
D03*
D37*
X0471Y04325D02*
D03*
X048163D02*
D03*
X046037D02*
D03*
D38*
X04717Y02244D02*
D03*
X04686Y022435D02*
D03*
X04655Y02243D02*
D03*
X04624Y022425D02*
D03*
X04593Y02242D02*
D03*
D39*
X048322Y0223D02*
D03*
X04832Y02004D02*
D03*
X044777D02*
D03*
X044778Y0223D02*
D03*
D40*
X0399Y02995D02*
D03*
X04238D02*
D03*
D41*
X041617Y025948D02*
D03*
X041617Y02685D02*
D03*
X041617Y027752D02*
D03*
D42*
X038983Y02685D02*
D03*
D43*
X042228Y0203D02*
D03*
X039472D02*
D03*
X053178Y02025D02*
D03*
X050422D02*
D03*
D44*
X038667Y0371D02*
D03*
Y0366D02*
D03*
Y0361D02*
D03*
Y0356D02*
D03*
Y0351D02*
D03*
Y0346D02*
D03*
Y0341D02*
D03*
Y0336D02*
D03*
X04595Y0321D02*
D03*
Y0326D02*
D03*
Y0331D02*
D03*
Y0336D02*
D03*
Y0341D02*
D03*
Y0346D02*
D03*
Y0351D02*
D03*
X038667Y0331D02*
D03*
Y0326D02*
D03*
Y0321D02*
D03*
Y0376D02*
D03*
Y0381D02*
D03*
Y0386D02*
D03*
X04595Y0356D02*
D03*
Y0361D02*
D03*
Y0366D02*
D03*
Y0371D02*
D03*
Y0376D02*
D03*
Y0381D02*
D03*
Y0386D02*
D03*
D45*
X044564Y031415D02*
D03*
X041064D02*
D03*
X040064D02*
D03*
X040564D02*
D03*
X041564D02*
D03*
X042064D02*
D03*
X042564D02*
D03*
X044064D02*
D03*
X043564D02*
D03*
X043064D02*
D03*
D46*
X042576Y035714D02*
D03*
D47*
X045959Y02528D02*
D03*
X046156D02*
D03*
X046353D02*
D03*
X04655D02*
D03*
X046747D02*
D03*
X046944D02*
D03*
X047141D02*
D03*
Y02732D02*
D03*
X046944D02*
D03*
X046747D02*
D03*
X04655D02*
D03*
X046353D02*
D03*
X046156D02*
D03*
X045959D02*
D03*
D48*
X04757Y025709D02*
D03*
Y025906D02*
D03*
Y026103D02*
D03*
Y0263D02*
D03*
Y026497D02*
D03*
Y026694D02*
D03*
Y026891D02*
D03*
X04553D02*
D03*
Y026694D02*
D03*
Y026497D02*
D03*
Y0263D02*
D03*
Y026103D02*
D03*
Y025906D02*
D03*
Y025709D02*
D03*
D49*
X04655Y0263D02*
D03*
D50*
X04615Y0298D02*
D03*
X0465Y029D02*
D03*
X0458D02*
D03*
X0444Y02985D02*
D03*
X04475Y02905D02*
D03*
X04405D02*
D03*
D51*
X04365Y0425D02*
D03*
D52*
X04065D02*
D03*
X04165D02*
D03*
X04265D02*
D03*
D53*
X0552Y02005D02*
D03*
X0377Y0202D02*
D03*
Y04305D02*
D03*
X0552D02*
D03*
D54*
X04715Y02335D02*
D03*
X0493Y02415D02*
D03*
D55*
X045684Y021284D02*
D03*
X047416D02*
D03*
M02*
