G04*
G04 #@! TF.GenerationSoftware,Altium Limited,Altium Designer,21.3.2 (30)*
G04*
G04 Layer_Color=2752767*
%FSTAX24Y24*%
%MOIN*%
G70*
G04*
G04 #@! TF.SameCoordinates,FC301295-0451-47DE-88D9-1873DC5D2598*
G04*
G04*
G04 #@! TF.FilePolarity,Positive*
G04*
G01*
G75*
%ADD66C,0.0020*%
%ADD67C,0.0027*%
D66*
X04357Y04242D02*
Y04258D01*
X04373D01*
Y04242D01*
X04357D01*
X04057D02*
Y04258D01*
X04073D01*
Y04242D01*
X04057D01*
X04157D02*
Y04258D01*
X04173D01*
Y04242D01*
X04157D01*
X04257D02*
Y04258D01*
X04273D01*
Y04242D01*
X04257D01*
X044959Y02621D02*
X044879Y02637D01*
X045039D01*
X044959Y02621D01*
X04495Y02587D02*
X04487Y02603D01*
X04503D01*
X04495Y02587D01*
X0552Y01997D02*
X05524Y02001D01*
X05528D01*
X05524Y02005D01*
X05528Y02009D01*
X05524D01*
X0552Y02013D01*
X05516Y02009D01*
X05512D01*
X05516Y02005D01*
X05512Y02001D01*
X05516D01*
X0552Y01997D01*
X0377Y02012D02*
X03774Y02016D01*
X03778D01*
X03774Y0202D01*
X03778Y02024D01*
X03774D01*
X0377Y02028D01*
X03766Y02024D01*
X03762D01*
X03766Y0202D01*
X03762Y02016D01*
X03766D01*
X0377Y02012D01*
Y04297D02*
X03774Y04301D01*
X03778D01*
X03774Y04305D01*
X03778Y04309D01*
X03774D01*
X0377Y04313D01*
X03766Y04309D01*
X03762D01*
X03766Y04305D01*
X03762Y04301D01*
X03766D01*
X0377Y04297D01*
X0552D02*
X05524Y04301D01*
X05528D01*
X05524Y04305D01*
X05528Y04309D01*
X05524D01*
X0552Y04313D01*
X05516Y04309D01*
X05512D01*
X05516Y04305D01*
X05512Y04301D01*
X05516D01*
X0552Y04297D01*
X045604Y021204D02*
X045644Y021284D01*
X045604Y021364D01*
X045684Y021324D01*
X045764Y021364D01*
X045724Y021284D01*
X045764Y021204D01*
X045684Y021244D01*
X045604Y021204D01*
X047336D02*
X047376Y021284D01*
X047336Y021364D01*
X047416Y021324D01*
X047496Y021364D01*
X047456Y021284D01*
X047496Y021204D01*
X047416Y021244D01*
X047336Y021204D01*
D67*
X056182Y041339D02*
G03*
X056182Y041339I-00008J0D01*
G01*
X055198Y03937D02*
G03*
X055198Y03937I-00008J0D01*
G01*
X056182Y037402D02*
G03*
X056182Y037402I-00008J0D01*
G01*
X055198Y035433D02*
G03*
X055198Y035433I-00008J0D01*
G01*
X056182Y033465D02*
G03*
X056182Y033465I-00008J0D01*
G01*
X055198Y031496D02*
G03*
X055198Y031496I-00008J0D01*
G01*
X056182Y029528D02*
G03*
X056182Y029528I-00008J0D01*
G01*
X055198Y027559D02*
G03*
X055198Y027559I-00008J0D01*
G01*
X056182Y025591D02*
G03*
X056182Y025591I-00008J0D01*
G01*
X055198Y023622D02*
G03*
X055198Y023622I-00008J0D01*
G01*
X056182Y021654D02*
G03*
X056182Y021654I-00008J0D01*
G01*
X054214Y041339D02*
G03*
X054214Y041339I-00008J0D01*
G01*
X05323Y03937D02*
G03*
X05323Y03937I-00008J0D01*
G01*
X054214Y037402D02*
G03*
X054214Y037402I-00008J0D01*
G01*
X05323Y035433D02*
G03*
X05323Y035433I-00008J0D01*
G01*
Y031496D02*
G03*
X05323Y031496I-00008J0D01*
G01*
X054214Y029528D02*
G03*
X054214Y029528I-00008J0D01*
G01*
Y025591D02*
G03*
X054214Y025591I-00008J0D01*
G01*
Y021654D02*
G03*
X054214Y021654I-00008J0D01*
G01*
X05323Y019685D02*
G03*
X05323Y019685I-00008J0D01*
G01*
X052245Y041339D02*
G03*
X052245Y041339I-00008J0D01*
G01*
X051261Y03937D02*
G03*
X051261Y03937I-00008J0D01*
G01*
X052245Y037402D02*
G03*
X052245Y037402I-00008J0D01*
G01*
X051261Y035433D02*
G03*
X051261Y035433I-00008J0D01*
G01*
X052245Y033465D02*
G03*
X052245Y033465I-00008J0D01*
G01*
X051261Y031496D02*
G03*
X051261Y031496I-00008J0D01*
G01*
Y027559D02*
G03*
X051261Y027559I-00008J0D01*
G01*
X052245Y025591D02*
G03*
X052245Y025591I-00008J0D01*
G01*
X051261Y023622D02*
G03*
X051261Y023622I-00008J0D01*
G01*
X052245Y021654D02*
G03*
X052245Y021654I-00008J0D01*
G01*
X051261Y019685D02*
G03*
X051261Y019685I-00008J0D01*
G01*
X049293Y03937D02*
G03*
X049293Y03937I-00008J0D01*
G01*
X050277Y037402D02*
G03*
X050277Y037402I-00008J0D01*
G01*
X049293Y035433D02*
G03*
X049293Y035433I-00008J0D01*
G01*
X050277Y033465D02*
G03*
X050277Y033465I-00008J0D01*
G01*
X049293Y023622D02*
G03*
X049293Y023622I-00008J0D01*
G01*
Y019685D02*
G03*
X049293Y019685I-00008J0D01*
G01*
X048308Y037402D02*
G03*
X048308Y037402I-00008J0D01*
G01*
X047324Y035433D02*
G03*
X047324Y035433I-00008J0D01*
G01*
Y019685D02*
G03*
X047324Y019685I-00008J0D01*
G01*
X045356Y035433D02*
G03*
X045356Y035433I-00008J0D01*
G01*
X044371Y037402D02*
G03*
X044371Y037402I-00008J0D01*
G01*
Y033465D02*
G03*
X044371Y033465I-00008J0D01*
G01*
X043387Y023622D02*
G03*
X043387Y023622I-00008J0D01*
G01*
X044371Y021654D02*
G03*
X044371Y021654I-00008J0D01*
G01*
X043387Y019685D02*
G03*
X043387Y019685I-00008J0D01*
G01*
X042403Y037402D02*
G03*
X042403Y037402I-00008J0D01*
G01*
X041419Y035433D02*
G03*
X041419Y035433I-00008J0D01*
G01*
X042403Y033465D02*
G03*
X042403Y033465I-00008J0D01*
G01*
Y021654D02*
G03*
X042403Y021654I-00008J0D01*
G01*
X041419Y019685D02*
G03*
X041419Y019685I-00008J0D01*
G01*
X040434Y037402D02*
G03*
X040434Y037402I-00008J0D01*
G01*
Y033465D02*
G03*
X040434Y033465I-00008J0D01*
G01*
Y025591D02*
G03*
X040434Y025591I-00008J0D01*
G01*
Y021654D02*
G03*
X040434Y021654I-00008J0D01*
G01*
X03945Y019685D02*
G03*
X03945Y019685I-00008J0D01*
G01*
X037482Y03937D02*
G03*
X037482Y03937I-00008J0D01*
G01*
Y035433D02*
G03*
X037482Y035433I-00008J0D01*
G01*
Y031496D02*
G03*
X037482Y031496I-00008J0D01*
G01*
X038466Y029528D02*
G03*
X038466Y029528I-00008J0D01*
G01*
X037482Y027559D02*
G03*
X037482Y027559I-00008J0D01*
G01*
X038466Y025591D02*
G03*
X038466Y025591I-00008J0D01*
G01*
X037482Y023622D02*
G03*
X037482Y023622I-00008J0D01*
G01*
X038466Y021654D02*
G03*
X038466Y021654I-00008J0D01*
G01*
X04808Y02755D02*
G03*
X04808Y02755I-00008J0D01*
G01*
X04993Y0284D02*
G03*
X04993Y0284I-00008J0D01*
G01*
X04723Y02335D02*
G03*
X04723Y02335I-00008J0D01*
G01*
X04938Y02415D02*
G03*
X04938Y02415I-00008J0D01*
G01*
X04908Y03135D02*
G03*
X04908Y03135I-00008J0D01*
G01*
X04528Y0314D02*
G03*
X04528Y0314I-00008J0D01*
G01*
X04993Y0324D02*
G03*
X04993Y0324I-00008J0D01*
G01*
X04193Y0246D02*
G03*
X04193Y0246I-00008J0D01*
G01*
X05083Y02755D02*
G03*
X05083Y02755I-00008J0D01*
G01*
X04673Y0366D02*
G03*
X04673Y0366I-00008J0D01*
G01*
X04528Y0371D02*
G03*
X04528Y0371I-00008J0D01*
G01*
M02*
