G04*
G04 #@! TF.GenerationSoftware,Altium Limited,Altium Designer,21.3.2 (30)*
G04*
G04 Layer_Color=65535*
%FSTAX24Y24*%
%MOIN*%
G70*
G04*
G04 #@! TF.SameCoordinates,FC301295-0451-47DE-88D9-1873DC5D2598*
G04*
G04*
G04 #@! TF.FilePolarity,Positive*
G04*
G01*
G75*
%ADD10C,0.0079*%
%ADD11C,0.0050*%
%ADD12C,0.0070*%
%ADD13C,0.0100*%
%ADD14C,0.0039*%
%ADD15R,0.1000X0.0500*%
D10*
X039408Y0222D02*
G03*
X039408Y0222I-000039J0D01*
G01*
X05511Y0319D02*
G03*
X05511Y0319I-000039J0D01*
G01*
X047139Y042305D02*
G03*
X047139Y042305I-000039J0D01*
G01*
X042308Y025948D02*
G03*
X042308Y025948I-000039J0D01*
G01*
X03965Y02489D02*
X04035D01*
X03965Y02351D02*
X04035D01*
Y024361D02*
Y02489D01*
Y02351D02*
Y024056D01*
X03965Y02351D02*
Y024056D01*
Y024361D02*
Y02489D01*
X0489Y02536D02*
Y025889D01*
X0489Y026194D02*
Y02674D01*
X0482Y026194D02*
X0482Y02674D01*
X0482Y02536D02*
Y025889D01*
X0482Y02674D02*
X0489D01*
X0482Y02536D02*
X0489Y02536D01*
X049199Y025382D02*
X049899D01*
X049199Y026762D02*
X049899D01*
X049199Y025382D02*
Y025912D01*
Y026217D02*
Y026762D01*
X049899D02*
X049899Y026217D01*
X049899Y025382D02*
Y025912D01*
X04826Y0244D02*
Y0251D01*
X04964Y0244D02*
Y0251D01*
X04826Y0251D02*
X048789D01*
X049094Y0251D02*
X04964D01*
X049094Y0244D02*
X04964D01*
X04826Y0244D02*
X048789Y0244D01*
X04015Y042D02*
Y043D01*
X04415D01*
X04015Y042D02*
X04415D01*
Y043D01*
X048233Y027194D02*
X048233Y027904D01*
X048233Y027194D02*
X048778D01*
X048233Y027904D02*
X048778D01*
X049083D02*
X049611D01*
X049611Y027194D01*
X049083D02*
X049611D01*
X04085Y02351D02*
X04155D01*
X04085Y02489D02*
X04155D01*
X04085Y02351D02*
Y024039D01*
Y024344D02*
Y02489D01*
X04155Y024344D02*
Y02489D01*
Y02351D02*
Y024039D01*
X05047Y028611D02*
X05118D01*
Y029156D01*
X05047Y028611D02*
Y029156D01*
Y029461D02*
Y029989D01*
X05118D01*
Y029461D02*
Y029989D01*
X04818Y029461D02*
Y029989D01*
X04747D02*
X04818D01*
X04747Y029461D02*
Y029989D01*
Y028611D02*
Y029156D01*
X04818Y028611D02*
Y029156D01*
X04747Y028611D02*
X04818D01*
X043985Y026144D02*
X044513Y026144D01*
X044513Y026854D01*
X043985D02*
X044513D01*
X043135D02*
X04368D01*
X043135Y026144D02*
X04368D01*
X043135Y026854D02*
X043135Y026144D01*
X043985Y024294D02*
X044513D01*
Y025004D01*
X043985D02*
X044513D01*
X043135D02*
X04368D01*
X043135Y024294D02*
X04368D01*
X043135D02*
Y025004D01*
X044515Y02525D02*
Y02595D01*
X043105Y02525D02*
Y02595D01*
X043965Y02525D02*
X044515D01*
X043105D02*
X04366D01*
X043105Y02595D02*
X04366Y02595D01*
X043965D02*
X044515Y02595D01*
X043111Y02778D02*
X043639D01*
X043111Y02707D02*
Y02778D01*
Y02707D02*
X043639D01*
X043944D02*
X044489D01*
X043944Y02778D02*
X044489D01*
X044489Y02707D01*
X04947Y028611D02*
Y029139D01*
Y028611D02*
X05018D01*
Y029139D01*
Y029444D02*
Y029989D01*
X04947Y029444D02*
Y029989D01*
X05018Y029989D01*
X04847Y028611D02*
Y029139D01*
Y028611D02*
X04918Y028611D01*
Y029139D01*
Y029444D02*
Y029989D01*
X04847Y029444D02*
Y029989D01*
X04918D01*
X05152Y028661D02*
X05223Y028661D01*
Y029206D01*
X05152Y028661D02*
Y029206D01*
Y029511D02*
Y030039D01*
X05223D01*
Y029511D02*
Y030039D01*
X05252Y029511D02*
X05252Y03006D01*
X05252Y029206D02*
X05252Y02865D01*
X05322D02*
Y029206D01*
Y029511D02*
Y03006D01*
X05252Y02865D02*
X05322D01*
X05252Y03006D02*
X05322D01*
D11*
X045763Y025119D02*
G03*
X045763Y025119I-000098J0D01*
G01*
X039989Y021865D02*
X041111D01*
X039989Y022535D02*
X041111D01*
X048175Y041349D02*
X054474D01*
X048175Y031113D02*
X054474D01*
Y041075D02*
Y041349D01*
Y031113D02*
Y031622D01*
X048175Y041075D02*
Y041349D01*
Y031113D02*
Y031622D01*
X043731Y025445D02*
X043891Y025605D01*
X043726Y02545D02*
X043731Y025445D01*
X043726Y02545D02*
Y02577D01*
X043896Y02544D02*
Y02578D01*
X043731Y025765D02*
X043891Y025605D01*
X03961Y025569D02*
X04099D01*
X03961D02*
Y028131D01*
X04099D01*
Y025569D02*
Y028131D01*
X045566Y025455D02*
Y025611D01*
Y025455D02*
X045705Y025316D01*
X045861D01*
X045566Y026989D02*
Y027284D01*
X045861D01*
X047239Y025316D02*
X047534D01*
Y025611D01*
Y026989D02*
Y027284D01*
X047239D02*
X047534D01*
X046725Y0293D02*
Y02965D01*
X046425D02*
X046725D01*
X045575D02*
X045875D01*
X045575Y0293D02*
Y02965D01*
X052705Y029277D02*
X052865Y029437D01*
X05269Y029442D02*
X05303D01*
X0527Y029272D02*
X05302Y029272D01*
X053025Y029277D01*
X052865Y029437D02*
X053025Y029277D01*
X044975Y02935D02*
Y0297D01*
X044675D02*
X044975D01*
X043825D02*
X044125D01*
X043825Y02935D02*
X043825Y0297D01*
D12*
X040271Y024112D02*
Y024292D01*
X039731Y024112D02*
Y024292D01*
X048819Y025958D02*
X048819Y026138D01*
X048279D02*
X048279Y025958D01*
X049277Y025981D02*
Y026161D01*
X049817Y025981D02*
Y026161D01*
X048858Y025021D02*
X049038D01*
X048858Y024481D02*
X049038Y024481D01*
X048834Y02782D02*
X049014D01*
X048834Y02728D02*
X049014D01*
X040929Y024108D02*
Y024288D01*
X041469Y024108D02*
Y024288D01*
X050554Y029212D02*
Y029392D01*
X051094Y029212D02*
Y029392D01*
X048094Y029212D02*
Y029392D01*
X047554Y029212D02*
Y029392D01*
X043736Y02623D02*
X043916D01*
X043736Y02677D02*
X043916D01*
X043736Y02438D02*
X043916D01*
X043736Y02492D02*
X043916D01*
X043708Y027694D02*
X043888D01*
X043708Y027154D02*
X043888D01*
X049556Y029208D02*
X049556Y029388D01*
X050096Y029208D02*
Y029388D01*
X048556Y029208D02*
Y029388D01*
X049096Y029208D02*
Y029388D01*
X051604Y029262D02*
Y029442D01*
X052144Y029262D02*
Y029442D01*
D13*
X04081Y02943D02*
Y03045D01*
Y02943D02*
X04146D01*
Y03045D01*
X04081D02*
X04146D01*
X03895Y030639D02*
X04326Y030639D01*
Y029261D02*
Y030639D01*
X03895Y029261D02*
X04326Y029261D01*
X03902D02*
Y030639D01*
X03893Y029261D02*
Y030639D01*
X03883Y029261D02*
Y030639D01*
Y03064D02*
X03895D01*
X03883Y02926D02*
X03898D01*
X04196Y01957D02*
Y02002D01*
Y02058D02*
Y02103D01*
X03974D02*
X04196D01*
X03974Y01957D02*
X04196D01*
X04035Y02005D02*
X04135D01*
X04035D02*
Y02055D01*
X04135D01*
Y02005D02*
Y02055D01*
X03974Y01957D02*
Y02002D01*
Y02058D02*
Y02103D01*
X05291Y01952D02*
Y01997D01*
Y02053D02*
Y02098D01*
X05069D02*
X05291D01*
X05069Y01952D02*
X05291D01*
X0513Y02D02*
X0523D01*
X0513D02*
Y0205D01*
X0523D01*
Y02D02*
Y0205D01*
X05069Y01952D02*
Y01997D01*
Y02053D02*
Y02098D01*
X04444Y02352D02*
Y02327D01*
X04449Y02322D01*
X04459D01*
X04464Y02327D01*
Y02352D01*
X04494Y02347D02*
X04489Y02352D01*
X04479D01*
X04474Y02347D01*
Y02342D01*
X04479Y02337D01*
X04489D01*
X04494Y02332D01*
Y02327D01*
X04489Y02322D01*
X04479D01*
X04474Y02327D01*
X04504Y02352D02*
Y02322D01*
X04519D01*
X04524Y02327D01*
Y02332D01*
X04519Y02337D01*
X04504D01*
X04519D01*
X04524Y02342D01*
Y02347D01*
X04519Y02352D01*
X04504D01*
X04534Y02322D02*
X04544D01*
X04539D01*
Y02352D01*
X04534Y02347D01*
X04541Y02814D02*
Y02789D01*
X04546Y02784D01*
X04556D01*
X04561Y02789D01*
Y02814D01*
X04586Y02784D02*
Y02814D01*
X04571Y02799D01*
X04591D01*
X0481Y0423D02*
Y04205D01*
X04815Y042D01*
X04825D01*
X0483Y04205D01*
Y0423D01*
X0484Y04225D02*
X04845Y0423D01*
X04855D01*
X0486Y04225D01*
Y0422D01*
X04855Y04215D01*
X0485D01*
X04855D01*
X0486Y0421D01*
Y04205D01*
X04855Y042D01*
X04845D01*
X0484Y04205D01*
X03843Y04218D02*
Y04193D01*
X03848Y04188D01*
X03858D01*
X03863Y04193D01*
Y04218D01*
X03893Y04188D02*
X03873D01*
X03893Y04208D01*
Y04213D01*
X03888Y04218D01*
X03878D01*
X03873Y04213D01*
X03872Y02884D02*
Y02859D01*
X03877Y02854D01*
X03887D01*
X03892Y02859D01*
Y02884D01*
X03902Y02854D02*
X03912D01*
X03907D01*
Y02884D01*
X03902Y02879D01*
X05037Y02158D02*
X05032Y02163D01*
X05022D01*
X05017Y02158D01*
Y02153D01*
X05022Y02148D01*
X05032D01*
X05037Y02143D01*
Y02138D01*
X05032Y02133D01*
X05022D01*
X05017Y02138D01*
X05067Y02133D02*
X05047D01*
X05067Y02153D01*
Y02158D01*
X05062Y02163D01*
X05052D01*
X05047Y02158D01*
X03942Y02163D02*
X03937Y02168D01*
X03927D01*
X03922Y02163D01*
Y02158D01*
X03927Y02153D01*
X03937D01*
X03942Y02148D01*
Y02143D01*
X03937Y02138D01*
X03927D01*
X03922Y02143D01*
X03952Y02138D02*
X03962D01*
X03957D01*
Y02168D01*
X03952Y02163D01*
X042374Y026474D02*
Y026774D01*
X042524D01*
X042574Y026724D01*
Y026624D01*
X042524Y026574D01*
X042374D01*
X042474D02*
X042574Y026474D01*
X042674Y026524D02*
X042724Y026474D01*
X042824D01*
X042874Y026524D01*
Y026724D01*
X042824Y026774D01*
X042724D01*
X042674Y026724D01*
Y026674D01*
X042724Y026624D01*
X042874D01*
X04235Y0273D02*
Y0276D01*
X0425D01*
X04255Y02755D01*
Y02745D01*
X0425Y0274D01*
X04235D01*
X04245D02*
X04255Y0273D01*
X04265Y02755D02*
X0427Y0276D01*
X0428D01*
X04285Y02755D01*
Y0275D01*
X0428Y02745D01*
X04285Y0274D01*
Y02735D01*
X0428Y0273D01*
X0427D01*
X04265Y02735D01*
Y0274D01*
X0427Y02745D01*
X04265Y0275D01*
Y02755D01*
X0427Y02745D02*
X0428D01*
X05158Y03038D02*
Y03068D01*
X05173D01*
X05178Y03063D01*
Y03053D01*
X05173Y03048D01*
X05158D01*
X05168D02*
X05178Y03038D01*
X05188Y03068D02*
X05208D01*
Y03063D01*
X05188Y03043D01*
Y03038D01*
X0499Y0274D02*
Y0277D01*
X05005D01*
X0501Y02765D01*
Y02755D01*
X05005Y0275D01*
X0499D01*
X05D02*
X0501Y0274D01*
X0504Y0277D02*
X0503Y02765D01*
X0502Y02755D01*
Y02745D01*
X05025Y0274D01*
X05035D01*
X0504Y02745D01*
Y0275D01*
X05035Y02755D01*
X0502D01*
X0476Y0303D02*
Y0306D01*
X04775D01*
X0478Y03055D01*
Y03045D01*
X04775Y0304D01*
X0476D01*
X0477D02*
X0478Y0303D01*
X0481Y0306D02*
X0479D01*
Y03045D01*
X048Y0305D01*
X04805D01*
X0481Y03045D01*
Y03035D01*
X04805Y0303D01*
X04795D01*
X0479Y03035D01*
X04853Y03033D02*
Y03063D01*
X04868D01*
X04873Y03058D01*
Y03048D01*
X04868Y03043D01*
X04853D01*
X04863D02*
X04873Y03033D01*
X04898D02*
Y03063D01*
X04883Y03048D01*
X04903D01*
X050574Y030326D02*
Y030626D01*
X050724D01*
X050774Y030576D01*
Y030476D01*
X050724Y030426D01*
X050574D01*
X050674D02*
X050774Y030326D01*
X050874Y030576D02*
X050924Y030626D01*
X051024D01*
X051074Y030576D01*
Y030526D01*
X051024Y030476D01*
X050974D01*
X051024D01*
X051074Y030426D01*
Y030376D01*
X051024Y030326D01*
X050924D01*
X050874Y030376D01*
X04235Y0244D02*
Y0247D01*
X0425D01*
X04255Y02465D01*
Y02455D01*
X0425Y0245D01*
X04235D01*
X04245D02*
X04255Y0244D01*
X04285D02*
X04265D01*
X04285Y0246D01*
Y02465D01*
X0428Y0247D01*
X0427D01*
X04265Y02465D01*
X04953Y03033D02*
Y03063D01*
X04968D01*
X04973Y03058D01*
Y03048D01*
X04968Y03043D01*
X04953D01*
X04963D02*
X04973Y03033D01*
X04983D02*
X04993D01*
X04988D01*
Y03063D01*
X04983Y03058D01*
X0441Y03047D02*
Y03067D01*
X04405Y03072D01*
X04395D01*
X0439Y03067D01*
Y03047D01*
X04395Y03042D01*
X04405D01*
X044Y03052D02*
X0441Y03042D01*
X04405D02*
X0441Y03047D01*
X0444Y03042D02*
X0442D01*
X0444Y03062D01*
Y03067D01*
X04435Y03072D01*
X04425D01*
X0442Y03067D01*
X04585Y03041D02*
Y03061D01*
X0458Y03066D01*
X0457D01*
X04565Y03061D01*
Y03041D01*
X0457Y03036D01*
X0458D01*
X04575Y03046D02*
X04585Y03036D01*
X0458D02*
X04585Y03041D01*
X04595Y03036D02*
X04605D01*
X046D01*
Y03066D01*
X04595Y03061D01*
X04025Y04325D02*
Y04355D01*
X0404D01*
X04045Y0435D01*
Y0434D01*
X0404Y04335D01*
X04025D01*
X04055Y0435D02*
X0406Y04355D01*
X0407D01*
X04075Y0435D01*
Y04345D01*
X0407Y0434D01*
X04065D01*
X0407D01*
X04075Y04335D01*
Y0433D01*
X0407Y04325D01*
X0406D01*
X04055Y0433D01*
X04593Y0484D02*
X04583D01*
X04588D01*
Y04815D01*
X04583Y0481D01*
X04578D01*
X04573Y04815D01*
X04603Y0481D02*
X04613D01*
X04608D01*
Y0484D01*
X04603Y04835D01*
X05258Y0307D02*
Y0304D01*
X05273D01*
X05278Y03045D01*
Y03065D01*
X05273Y0307D01*
X05258D01*
X05288Y03065D02*
X05293Y0307D01*
X05303D01*
X05308Y03065D01*
Y0306D01*
X05303Y03055D01*
X05298D01*
X05303D01*
X05308Y0305D01*
Y03045D01*
X05303Y0304D01*
X05293D01*
X05288Y03045D01*
X04235Y02575D02*
Y02545D01*
X0425D01*
X04255Y0255D01*
Y0257D01*
X0425Y02575D01*
X04235D01*
X04285Y02545D02*
X04265D01*
X04285Y02565D01*
Y0257D01*
X0428Y02575D01*
X0427D01*
X04265Y0257D01*
X0412Y02155D02*
Y02125D01*
X04135D01*
X0414Y0213D01*
Y0215D01*
X04135Y02155D01*
X0412D01*
X0415Y02125D02*
X0416D01*
X04155D01*
Y02155D01*
X0415Y0215D01*
X05035Y0262D02*
X0503Y02625D01*
X0502D01*
X05015Y0262D01*
Y026D01*
X0502Y02595D01*
X0503D01*
X05035Y026D01*
X05065Y02625D02*
X05055Y0262D01*
X05045Y0261D01*
Y026D01*
X0505Y02595D01*
X0506D01*
X05065Y026D01*
Y02605D01*
X0506Y0261D01*
X05045D01*
X04865Y0241D02*
X0486Y02415D01*
X0485D01*
X04845Y0241D01*
Y0239D01*
X0485Y02385D01*
X0486D01*
X04865Y0239D01*
X0489Y02385D02*
Y02415D01*
X04875Y024D01*
X04895D01*
X03908Y03124D02*
X03903Y03129D01*
X03893D01*
X03888Y03124D01*
Y03104D01*
X03893Y03099D01*
X03903D01*
X03908Y03104D01*
X03918Y03124D02*
X03923Y03129D01*
X03933D01*
X03938Y03124D01*
Y03119D01*
X03933Y03114D01*
X03928D01*
X03933D01*
X03938Y03109D01*
Y03104D01*
X03933Y03099D01*
X03923D01*
X03918Y03104D01*
X039925Y023075D02*
X039875Y023125D01*
X039775D01*
X039725Y023075D01*
Y022875D01*
X039775Y022825D01*
X039875D01*
X039925Y022875D01*
X040225Y022825D02*
X040025D01*
X040225Y023025D01*
Y023075D01*
X040175Y023125D01*
X040075D01*
X040025Y023075D01*
X04125Y02315D02*
X0412Y0232D01*
X0411D01*
X04105Y02315D01*
Y02295D01*
X0411Y0229D01*
X0412D01*
X04125Y02295D01*
X04135Y0229D02*
X04145D01*
X0414D01*
Y0232D01*
X04135Y02315D01*
D14*
X047817Y025366D02*
X047784Y025398D01*
X047719D01*
X047686Y025366D01*
Y025234D01*
X047719Y025202D01*
X047784D01*
X047817Y025234D01*
X048014Y025398D02*
X047883D01*
Y0253D01*
X047948Y025333D01*
X047981D01*
X048014Y0253D01*
Y025234D01*
X047981Y025202D01*
X047916D01*
X047883Y025234D01*
D15*
X04085Y0203D02*
D03*
X0518Y02025D02*
D03*
M02*
