G04*
G04 #@! TF.GenerationSoftware,Altium Limited,Altium Designer,21.3.2 (30)*
G04*
G04 Layer_Color=128*
%FSTAX24Y24*%
%MOIN*%
G70*
G04*
G04 #@! TF.SameCoordinates,FC301295-0451-47DE-88D9-1873DC5D2598*
G04*
G04*
G04 #@! TF.FilePolarity,Positive*
G04*
G01*
G75*
%ADD66C,0.0020*%
D66*
X043473Y0425D02*
X043827D01*
X04365Y042323D02*
Y042677D01*
X040473Y0425D02*
X040827D01*
X04065Y042323D02*
Y042677D01*
X041473Y0425D02*
X041827D01*
X04165Y042323D02*
Y042677D01*
X042473Y0425D02*
X042827D01*
X04265Y042323D02*
Y042677D01*
X056042Y041339D02*
X056162D01*
X056102Y041279D02*
Y041399D01*
X055058Y03937D02*
X055178D01*
X055118Y03931D02*
Y03943D01*
X056042Y037402D02*
X056162D01*
X056102Y037342D02*
Y037462D01*
X055058Y035433D02*
X055178D01*
X055118Y035373D02*
Y035493D01*
X056042Y033465D02*
X056162D01*
X056102Y033405D02*
Y033525D01*
X055058Y031496D02*
X055178D01*
X055118Y031436D02*
Y031556D01*
X056042Y029528D02*
X056162D01*
X056102Y029468D02*
Y029588D01*
X055058Y027559D02*
X055178D01*
X055118Y027499D02*
Y027619D01*
X056042Y025591D02*
X056162D01*
X056102Y025531D02*
Y025651D01*
X055058Y023622D02*
X055178D01*
X055118Y023562D02*
Y023682D01*
X056042Y021654D02*
X056162D01*
X056102Y021594D02*
Y021714D01*
X054074Y041339D02*
X054194D01*
X054134Y041279D02*
Y041399D01*
X05309Y03937D02*
X05321D01*
X05315Y03931D02*
Y03943D01*
X054074Y037402D02*
X054194D01*
X054134Y037342D02*
Y037462D01*
X05309Y035433D02*
X05321D01*
X05315Y035373D02*
Y035493D01*
X05309Y031496D02*
X05321D01*
X05315Y031436D02*
Y031556D01*
X054074Y029528D02*
X054194D01*
X054134Y029468D02*
Y029588D01*
X054074Y025591D02*
X054194D01*
X054134Y025531D02*
Y025651D01*
X054074Y021654D02*
X054194D01*
X054134Y021594D02*
Y021714D01*
X05309Y019685D02*
X05321D01*
X05315Y019625D02*
Y019745D01*
X052105Y041339D02*
X052225D01*
X052165Y041279D02*
Y041399D01*
X051121Y03937D02*
X051241D01*
X051181Y03931D02*
Y03943D01*
X052105Y037402D02*
X052225D01*
X052165Y037342D02*
Y037462D01*
X051121Y035433D02*
X051241D01*
X051181Y035373D02*
Y035493D01*
X052105Y033465D02*
X052225D01*
X052165Y033405D02*
Y033525D01*
X051121Y031496D02*
X051241D01*
X051181Y031436D02*
Y031556D01*
X051121Y027559D02*
X051241D01*
X051181Y027499D02*
Y027619D01*
X052105Y025591D02*
X052225D01*
X052165Y025531D02*
Y025651D01*
X051121Y023622D02*
X051241D01*
X051181Y023562D02*
Y023682D01*
X052105Y021654D02*
X052225D01*
X052165Y021594D02*
Y021714D01*
X051121Y019685D02*
X051241D01*
X051181Y019625D02*
Y019745D01*
X049153Y03937D02*
X049273D01*
X049213Y03931D02*
Y03943D01*
X050137Y037402D02*
X050257D01*
X050197Y037342D02*
Y037462D01*
X049153Y035433D02*
X049273D01*
X049213Y035373D02*
Y035493D01*
X050137Y033465D02*
X050257D01*
X050197Y033405D02*
Y033525D01*
X049153Y023622D02*
X049273D01*
X049213Y023562D02*
Y023682D01*
X049153Y019685D02*
X049273D01*
X049213Y019625D02*
Y019745D01*
X048168Y037402D02*
X048288D01*
X048228Y037342D02*
Y037462D01*
X047184Y035433D02*
X047304D01*
X047244Y035373D02*
Y035493D01*
X047184Y019685D02*
X047304D01*
X047244Y019625D02*
Y019745D01*
X045216Y035433D02*
X045336D01*
X045276Y035373D02*
Y035493D01*
X044231Y037402D02*
X044351D01*
X044291Y037342D02*
Y037462D01*
X044231Y033465D02*
X044351D01*
X044291Y033405D02*
Y033525D01*
X043247Y023622D02*
X043367D01*
X043307Y023562D02*
Y023682D01*
X044231Y021654D02*
X044351D01*
X044291Y021594D02*
Y021714D01*
X043247Y019685D02*
X043367D01*
X043307Y019625D02*
Y019745D01*
X042263Y037402D02*
X042383D01*
X042323Y037342D02*
Y037462D01*
X041279Y035433D02*
X041399D01*
X041339Y035373D02*
Y035493D01*
X042263Y033465D02*
X042383D01*
X042323Y033405D02*
Y033525D01*
X042263Y021654D02*
X042383D01*
X042323Y021594D02*
Y021714D01*
X041279Y019685D02*
X041399D01*
X041339Y019625D02*
Y019745D01*
X040294Y037402D02*
X040414D01*
X040354Y037342D02*
Y037462D01*
X040294Y033465D02*
X040414D01*
X040354Y033405D02*
Y033525D01*
X040294Y025591D02*
X040414D01*
X040354Y025531D02*
Y025651D01*
X040294Y021654D02*
X040414D01*
X040354Y021594D02*
Y021714D01*
X03931Y019685D02*
X03943D01*
X03937Y019625D02*
Y019745D01*
X037342Y03937D02*
X037462D01*
X037402Y03931D02*
Y03943D01*
X037342Y035433D02*
X037462D01*
X037402Y035373D02*
Y035493D01*
X037342Y031496D02*
X037462D01*
X037402Y031436D02*
Y031556D01*
X038326Y029528D02*
X038446D01*
X038386Y029468D02*
Y029588D01*
X037342Y027559D02*
X037462D01*
X037402Y027499D02*
Y027619D01*
X038326Y025591D02*
X038446D01*
X038386Y025531D02*
Y025651D01*
X037342Y023622D02*
X037462D01*
X037402Y023562D02*
Y023682D01*
X038326Y021654D02*
X038446D01*
X038386Y021594D02*
Y021714D01*
X044899Y02629D02*
X045019D01*
X044959Y02623D02*
Y02635D01*
X04489Y02595D02*
X04501D01*
X04495Y02589D02*
Y02601D01*
X04794Y02755D02*
X04806D01*
X048Y02749D02*
Y02761D01*
X04979Y0284D02*
X04991D01*
X04985Y02834D02*
Y02846D01*
X0547Y02005D02*
X0557D01*
X0552Y01955D02*
Y02055D01*
X0372Y0202D02*
X0382D01*
X0377Y0197D02*
Y0207D01*
X0372Y04305D02*
X0382D01*
X0377Y04255D02*
Y04355D01*
X0547Y04305D02*
X0557D01*
X0552Y04255D02*
Y04355D01*
X04709Y02335D02*
X04721D01*
X04715Y02329D02*
Y02341D01*
X04924Y02415D02*
X04936D01*
X0493Y02409D02*
Y02421D01*
X04894Y03135D02*
X04906D01*
X049Y03129D02*
Y03141D01*
X04514Y0314D02*
X04526D01*
X0452Y03134D02*
Y03146D01*
X04979Y0324D02*
X04991D01*
X04985Y03234D02*
Y03246D01*
X04179Y0246D02*
X04191D01*
X04185Y02454D02*
Y02466D01*
X05069Y02755D02*
X05081D01*
X05075Y02749D02*
Y02761D01*
X04659Y0366D02*
X04671D01*
X04665Y03654D02*
Y03666D01*
X04514Y0371D02*
X04526D01*
X0452Y03704D02*
Y03716D01*
X045487Y021284D02*
X045881D01*
X045684Y021087D02*
Y021481D01*
X047219Y021284D02*
X047613D01*
X047416Y021087D02*
Y021481D01*
M02*
