G04*
G04 #@! TF.GenerationSoftware,Altium Limited,Altium Designer,21.3.2 (30)*
G04*
G04 Layer_Physical_Order=2*
G04 Layer_Color=16711680*
%FSTAX24Y24*%
%MOIN*%
G70*
G04*
G04 #@! TF.SameCoordinates,FC301295-0451-47DE-88D9-1873DC5D2598*
G04*
G04*
G04 #@! TF.FilePolarity,Positive*
G04*
G01*
G75*
%ADD20R,0.0591X0.1378*%
%ADD56C,0.0150*%
%ADD59R,0.0591X0.0591*%
%ADD60C,0.0591*%
%ADD61C,0.0250*%
%ADD62C,0.0120*%
%ADD63C,0.1000*%
%ADD64C,0.0472*%
G36*
X056193Y043996D02*
X056279Y04396D01*
X056353Y043903D01*
X05641Y043829D01*
X056446Y043743D01*
X056458Y043652D01*
X056457Y04365D01*
Y01935D01*
X056458Y019348D01*
X056446Y019257D01*
X05641Y019171D01*
X056353Y019097D01*
X056279Y01904D01*
X056193Y019004D01*
X056102Y018992D01*
X0561Y018993D01*
X03685D01*
X036848Y018992D01*
X036757Y019004D01*
X036671Y01904D01*
X036597Y019097D01*
X03654Y019171D01*
X036504Y019257D01*
X036492Y019348D01*
X036493Y01935D01*
Y04365D01*
X036492Y043652D01*
X036504Y043743D01*
X03654Y043829D01*
X036597Y043903D01*
X036671Y04396D01*
X036757Y043996D01*
X036848Y044008D01*
X03685Y044007D01*
X0561D01*
X056102Y044008D01*
X056193Y043996D01*
D02*
G37*
%LPC*%
G36*
X055258Y04364D02*
X055142D01*
X055028Y043617D01*
X054921Y043573D01*
X054824Y043508D01*
X054742Y043426D01*
X054677Y043329D01*
X054633Y043222D01*
X05461Y043108D01*
Y042992D01*
X054633Y042878D01*
X054677Y042771D01*
X054742Y042674D01*
X054824Y042592D01*
X054921Y042527D01*
X055028Y042483D01*
X055142Y04246D01*
X055258D01*
X055372Y042483D01*
X055479Y042527D01*
X055576Y042592D01*
X055658Y042674D01*
X055723Y042771D01*
X055767Y042878D01*
X05579Y042992D01*
Y043108D01*
X055767Y043222D01*
X055723Y043329D01*
X055658Y043426D01*
X055576Y043508D01*
X055479Y043573D01*
X055372Y043617D01*
X055258Y04364D01*
D02*
G37*
G36*
X037758D02*
X037642D01*
X037528Y043617D01*
X037421Y043573D01*
X037324Y043508D01*
X037242Y043426D01*
X037177Y043329D01*
X037133Y043222D01*
X03711Y043108D01*
Y042992D01*
X037133Y042878D01*
X037177Y042771D01*
X037242Y042674D01*
X037324Y042592D01*
X037421Y042527D01*
X037528Y042483D01*
X037642Y04246D01*
X037758D01*
X037872Y042483D01*
X037979Y042527D01*
X038076Y042592D01*
X038158Y042674D01*
X038223Y042771D01*
X038267Y042878D01*
X03829Y042992D01*
Y043108D01*
X038267Y043222D01*
X038223Y043329D01*
X038158Y043426D01*
X038076Y043508D01*
X037979Y043573D01*
X037872Y043617D01*
X037758Y04364D01*
D02*
G37*
G36*
X042701Y042885D02*
X042599D01*
X042501Y042859D01*
X042413Y042808D01*
X042342Y042737D01*
X042291Y042649D01*
X042265Y042551D01*
Y042449D01*
X042291Y042351D01*
X042342Y042263D01*
X042413Y042192D01*
X042501Y042141D01*
X042599Y042115D01*
X042701D01*
X042799Y042141D01*
X042887Y042192D01*
X042958Y042263D01*
X043009Y042351D01*
X043035Y042449D01*
Y042551D01*
X043009Y042649D01*
X042958Y042737D01*
X042887Y042808D01*
X042799Y042859D01*
X042701Y042885D01*
D02*
G37*
G36*
X041701D02*
X041599D01*
X041501Y042859D01*
X041413Y042808D01*
X041342Y042737D01*
X041291Y042649D01*
X041265Y042551D01*
Y042449D01*
X041291Y042351D01*
X041342Y042263D01*
X041413Y042192D01*
X041501Y042141D01*
X041599Y042115D01*
X041701D01*
X041799Y042141D01*
X041887Y042192D01*
X041958Y042263D01*
X042009Y042351D01*
X042035Y042449D01*
Y042551D01*
X042009Y042649D01*
X041958Y042737D01*
X041887Y042808D01*
X041799Y042859D01*
X041701Y042885D01*
D02*
G37*
G36*
X040701D02*
X040599D01*
X040501Y042859D01*
X040413Y042808D01*
X040342Y042737D01*
X040291Y042649D01*
X040265Y042551D01*
Y042449D01*
X040291Y042351D01*
X040342Y042263D01*
X040413Y042192D01*
X040501Y042141D01*
X040599Y042115D01*
X040701D01*
X040799Y042141D01*
X040887Y042192D01*
X040958Y042263D01*
X041009Y042351D01*
X041035Y042449D01*
Y042551D01*
X041009Y042649D01*
X040958Y042737D01*
X040887Y042808D01*
X040799Y042859D01*
X040701Y042885D01*
D02*
G37*
G36*
X045852Y041645D02*
X038765D01*
X03873Y041638D01*
X0387Y041618D01*
X03868Y041588D01*
X038673Y041553D01*
Y039191D01*
X03868Y039155D01*
X0387Y039126D01*
X03873Y039106D01*
X038765Y039099D01*
X045852D01*
X045887Y039106D01*
X045916Y039126D01*
X045936Y039155D01*
X045943Y039191D01*
Y041553D01*
X045936Y041588D01*
X045916Y041618D01*
X045887Y041638D01*
X045852Y041645D01*
D02*
G37*
G36*
X045243Y031615D02*
X045157D01*
X045078Y031582D01*
X045018Y031522D01*
X044985Y031443D01*
Y031357D01*
X045018Y031278D01*
X045078Y031218D01*
X045157Y031185D01*
X045243D01*
X045322Y031218D01*
X045336Y031232D01*
X048816D01*
X048818Y031228D01*
X048878Y031168D01*
X048957Y031135D01*
X049043D01*
X049122Y031168D01*
X049182Y031228D01*
X049215Y031307D01*
Y031393D01*
X049182Y031472D01*
X049122Y031532D01*
X049043Y031565D01*
X048957D01*
X048951Y031563D01*
X048923Y031568D01*
X045336D01*
X045322Y031582D01*
X045243Y031615D01*
D02*
G37*
G36*
X046693Y036815D02*
X046607D01*
X046528Y036782D01*
X046468Y036722D01*
X046435Y036643D01*
Y036557D01*
X046468Y036478D01*
X046528Y036418D01*
X046607Y036385D01*
X046693D01*
X046772Y036418D01*
X046786Y036432D01*
X04968D01*
X050582Y03553D01*
Y027686D01*
X050568Y027672D01*
X050535Y027593D01*
Y027507D01*
X050568Y027428D01*
X050628Y027368D01*
X050707Y027335D01*
X050793D01*
X050872Y027368D01*
X050932Y027428D01*
X050965Y027507D01*
Y027593D01*
X050932Y027672D01*
X050918Y027686D01*
Y0356D01*
X050918Y0356D01*
X050905Y035664D01*
X050869Y035719D01*
X050869Y035719D01*
X049869Y036719D01*
X049814Y036755D01*
X04975Y036768D01*
X046786D01*
X046772Y036782D01*
X046693Y036815D01*
D02*
G37*
G36*
X045243Y037315D02*
X045157D01*
X045078Y037282D01*
X045018Y037222D01*
X044985Y037143D01*
Y037096D01*
X043831Y035942D01*
X043795Y035887D01*
X043782Y035823D01*
Y027283D01*
X043795Y027219D01*
X043831Y027164D01*
X044744Y026252D01*
Y026247D01*
X044776Y026168D01*
X04482Y026124D01*
X044768Y026072D01*
X044735Y025993D01*
Y025907D01*
X044768Y025828D01*
X044828Y025768D01*
X044907Y025735D01*
X044993D01*
X045072Y025768D01*
X045086Y025782D01*
X0476D01*
X047664Y025795D01*
X047719Y025831D01*
X048119Y026231D01*
X048119Y026231D01*
X048155Y026286D01*
X048168Y02635D01*
Y027414D01*
X048182Y027428D01*
X048215Y027507D01*
Y027593D01*
X048182Y027672D01*
X048122Y027732D01*
X048043Y027765D01*
X047957D01*
X047878Y027732D01*
X047818Y027672D01*
X047785Y027593D01*
Y027507D01*
X047818Y027428D01*
X047832Y027414D01*
Y02642D01*
X04753Y026118D01*
X045156D01*
X045137Y026164D01*
X045141Y026168D01*
X045174Y026247D01*
Y026333D01*
X045141Y026412D01*
X04508Y026472D01*
X045001Y026505D01*
X044966D01*
X044118Y027353D01*
Y035753D01*
X045255Y03689D01*
X045322Y036918D01*
X045382Y036978D01*
X045415Y037057D01*
Y037143D01*
X045382Y037222D01*
X045322Y037282D01*
X045243Y037315D01*
D02*
G37*
G36*
X049893Y032615D02*
X049807D01*
X049728Y032582D01*
X049668Y032522D01*
X049635Y032443D01*
Y032357D01*
X049668Y032278D01*
X049682Y032264D01*
Y02517D01*
X04928Y024768D01*
X041986D01*
X041972Y024782D01*
X041893Y024815D01*
X041807D01*
X041728Y024782D01*
X041668Y024722D01*
X041635Y024643D01*
Y024557D01*
X041668Y024478D01*
X041728Y024418D01*
X041807Y024385D01*
X041893D01*
X041972Y024418D01*
X041986Y024432D01*
X04935D01*
X049414Y024445D01*
X049469Y024481D01*
X049969Y024981D01*
X050005Y025036D01*
X050018Y0251D01*
X050018Y0251D01*
Y032264D01*
X050032Y032278D01*
X050065Y032357D01*
Y032443D01*
X050032Y032522D01*
X049972Y032582D01*
X049893Y032615D01*
D02*
G37*
G36*
X047459Y02161D02*
X047373D01*
X04729Y021588D01*
X047216Y021545D01*
X047155Y021485D01*
X047112Y02141D01*
X04709Y021327D01*
Y021241D01*
X047112Y021158D01*
X047155Y021084D01*
X047216Y021023D01*
X04729Y02098D01*
X047373Y020958D01*
X047459D01*
X047542Y02098D01*
X047616Y021023D01*
X047677Y021084D01*
X04772Y021158D01*
X047742Y021241D01*
Y021327D01*
X04772Y02141D01*
X047677Y021485D01*
X047616Y021545D01*
X047542Y021588D01*
X047459Y02161D01*
D02*
G37*
G36*
X045727D02*
X045641D01*
X045558Y021588D01*
X045484Y021545D01*
X045423Y021485D01*
X04538Y02141D01*
X045358Y021327D01*
Y021241D01*
X04538Y021158D01*
X045423Y021084D01*
X045484Y021023D01*
X045558Y02098D01*
X045641Y020958D01*
X045727D01*
X04581Y02098D01*
X045884Y021023D01*
X045945Y021084D01*
X045988Y021158D01*
X04601Y021241D01*
Y021327D01*
X045988Y02141D01*
X045945Y021485D01*
X045884Y021545D01*
X04581Y021588D01*
X045727Y02161D01*
D02*
G37*
G36*
X037758Y02079D02*
X037642D01*
X037528Y020767D01*
X037421Y020723D01*
X037324Y020658D01*
X037242Y020576D01*
X037177Y020479D01*
X037133Y020372D01*
X03711Y020258D01*
Y020142D01*
X037133Y020028D01*
X037177Y019921D01*
X037242Y019824D01*
X037324Y019742D01*
X037421Y019677D01*
X037528Y019633D01*
X037642Y01961D01*
X037758D01*
X037872Y019633D01*
X037979Y019677D01*
X038076Y019742D01*
X038158Y019824D01*
X038223Y019921D01*
X038267Y020028D01*
X03829Y020142D01*
Y020258D01*
X038267Y020372D01*
X038223Y020479D01*
X038158Y020576D01*
X038076Y020658D01*
X037979Y020723D01*
X037872Y020767D01*
X037758Y02079D01*
D02*
G37*
G36*
X055258Y02064D02*
X055142D01*
X055028Y020617D01*
X054921Y020573D01*
X054824Y020508D01*
X054742Y020426D01*
X054677Y020329D01*
X054633Y020222D01*
X05461Y020108D01*
Y019992D01*
X054633Y019878D01*
X054677Y019771D01*
X054742Y019674D01*
X054824Y019592D01*
X054921Y019527D01*
X055028Y019483D01*
X055142Y01946D01*
X055258D01*
X055372Y019483D01*
X055479Y019527D01*
X055576Y019592D01*
X055658Y019674D01*
X055723Y019771D01*
X055767Y019878D01*
X05579Y019992D01*
Y020108D01*
X055767Y020222D01*
X055723Y020329D01*
X055658Y020426D01*
X055576Y020508D01*
X055479Y020573D01*
X055372Y020617D01*
X055258Y02064D01*
D02*
G37*
%LPD*%
D20*
X048163Y04325D02*
D03*
X046037D02*
D03*
D56*
X044944Y02629D02*
X044959D01*
X0476Y02595D02*
X048Y02635D01*
X04495Y02595D02*
X0476D01*
X04395Y027283D02*
X044944Y02629D01*
X04395Y027283D02*
Y035823D01*
X04935Y0246D02*
X04985Y0251D01*
Y0324D01*
X048923Y0314D02*
X048973Y03135D01*
X0452Y0314D02*
X048923D01*
X048973Y03135D02*
X049D01*
X05075Y02755D02*
Y0356D01*
X04975Y0366D02*
X05075Y0356D01*
X04185Y0246D02*
X04935D01*
X048Y02635D02*
Y02755D01*
X04665Y0366D02*
X04975D01*
X04395Y035823D02*
X0452Y037073D01*
Y0371D01*
D59*
X04365Y0425D02*
D03*
D60*
X04065D02*
D03*
X04165D02*
D03*
X04265D02*
D03*
D61*
X056102Y041339D02*
D03*
X055118Y03937D02*
D03*
X056102Y037402D02*
D03*
X055118Y035433D02*
D03*
X056102Y033465D02*
D03*
X055118Y031496D02*
D03*
X056102Y029528D02*
D03*
X055118Y027559D02*
D03*
X056102Y025591D02*
D03*
X055118Y023622D02*
D03*
X056102Y021654D02*
D03*
X054134Y041339D02*
D03*
X05315Y03937D02*
D03*
X054134Y037402D02*
D03*
X05315Y035433D02*
D03*
Y031496D02*
D03*
X054134Y029528D02*
D03*
Y025591D02*
D03*
Y021654D02*
D03*
X05315Y019685D02*
D03*
X052165Y041339D02*
D03*
X051181Y03937D02*
D03*
X052165Y037402D02*
D03*
X051181Y035433D02*
D03*
X052165Y033465D02*
D03*
X051181Y031496D02*
D03*
Y027559D02*
D03*
X052165Y025591D02*
D03*
X051181Y023622D02*
D03*
X052165Y021654D02*
D03*
X051181Y019685D02*
D03*
X049213Y03937D02*
D03*
X050197Y037402D02*
D03*
X049213Y035433D02*
D03*
X050197Y033465D02*
D03*
X049213Y023622D02*
D03*
Y019685D02*
D03*
X048228Y037402D02*
D03*
X047244Y035433D02*
D03*
Y019685D02*
D03*
X045276Y035433D02*
D03*
X044291Y037402D02*
D03*
Y033465D02*
D03*
X043307Y023622D02*
D03*
X044291Y021654D02*
D03*
X043307Y019685D02*
D03*
X042323Y037402D02*
D03*
X041339Y035433D02*
D03*
X042323Y033465D02*
D03*
Y021654D02*
D03*
X041339Y019685D02*
D03*
X040354Y037402D02*
D03*
Y033465D02*
D03*
Y025591D02*
D03*
Y021654D02*
D03*
X03937Y019685D02*
D03*
X037402Y03937D02*
D03*
Y035433D02*
D03*
Y031496D02*
D03*
X038386Y029528D02*
D03*
X037402Y027559D02*
D03*
X038386Y025591D02*
D03*
X037402Y023622D02*
D03*
X038386Y021654D02*
D03*
X044959Y02629D02*
D03*
X04495Y02595D02*
D03*
X048Y02755D02*
D03*
X04715Y02335D02*
D03*
X0493Y02415D02*
D03*
X049Y03135D02*
D03*
X0452Y0314D02*
D03*
X04985Y0324D02*
D03*
X04185Y0246D02*
D03*
X05075Y02755D02*
D03*
X04665Y0366D02*
D03*
X0452Y0371D02*
D03*
D62*
X04985Y0284D02*
D03*
D63*
X0552Y02005D02*
D03*
X0377Y0202D02*
D03*
Y04305D02*
D03*
X0552D02*
D03*
D64*
X045684Y021284D02*
D03*
X047416D02*
D03*
M02*
