M48
;Layer_Color=9474304
;FILE_FORMAT=2:4
INCH,LZ
;TYPE=PLATED
T1F00S00C0.0120
T2F00S00C0.0354
T3F00S00C0.0394
T4F00S00C0.1000
%
T01
X047244Y019685
X049213
X051181
X05315
X054134Y021654
X056102
X055118Y023622
X056102Y025591
X054134
X052165
X051181Y027559
X05075Y02755
X04985Y0284
X048Y02755
X0493Y02415
X049213Y023622
X051181
X052165Y021654
X04715Y02335
X055118Y027559
X056102Y029528
X054134
X044959Y02629
X04495Y02595
X043307Y023622
X04185Y0246
X040354Y025591
X038386
X037402Y027559
X038386Y029528
X037402Y023622
X038386Y021654
X040354
X042323
X044291
X043307Y019685
X041339
X03937
X037402Y031496
Y035433
X041339
X042323Y037402
X044291
X0452Y0371
X045276Y035433
X04665Y0366
X044291Y033465
X042323
X040354
Y037402
X037402Y03937
X0452Y0314
X049Y03135
X04985Y0324
X050197Y033465
X052165
X05315Y035433
X055118
X056102Y037402
X054134
X052165
X050197
X048228
X049213Y03937
X051181
X05315
X055118
X056102Y041339
X054134
X052165
X051181Y035433
X049213
X047244
X051181Y031496
X05315
X055118
X056102Y033465
T02
X04065Y0425
X04165
X04265
X04365
T03
X047416Y021284
X045684
T04
X0552Y02005
X0377Y0202
Y04305
X0552
M30
